<svg xmlns="http://www.w3.org/2000/svg" width="560" height="560" viewBox="0 0 560 560">
<defs><linearGradient id="blueGrad"><stop offset="0" stop-color="#ffffff"/></linearGradient></defs>
<g transform="translate(-60 40)">
  <path d="M417.0 215.0
  A81.8 81.8 0 0 1 409.2 285.0
  A83.3 83.3 0 0 1 348.8 323.6
  A84.8 84.8 0 0 1 279.6 300.5
  A86.3 86.3 0 0 1 253.4 230.9
  A87.8 87.8 0 0 1 291.8 165.7
  L303.2 183.4
  A68.3 68.3 0 0 0 271.3 232.8
  A69.8 69.8 0 0 0 290.2 289.8
  A71.3 71.3 0 0 0 347.6 311.6
  A72.8 72.8 0 0 0 401.7 280.1
  A74.3 74.3 0 0 0 411.3 216.8
  A3 3 0 0 0 417.0 215.0
  Z" fill="#ffffff"/>
  <path d="M291.8 165.7
  A89.3 89.3 0 0 1 367.8 154.4
  A12 12 0 0 1 360.4 177.2
  A66.8 66.8 0 0 0 303.2 183.4
  Z" fill="#ffffff"/>
  <path d="M398 165 C401 181 407 185 420 187 C407 189 401 193 398 209 C395 193 389 189 376 187 C389 185 395 181 398 165 Z" fill="#ffffff"/></g>
</svg>