<svg xmlns="http://www.w3.org/2000/svg" width="1024" height="1024" viewBox="0 0 1024 1024">
<defs><linearGradient id="bgGrad" x1="0" y1="0" x2="1" y2="1">
  <stop offset="0" stop-color="#060a12"/><stop offset="1" stop-color="#101c30"/></linearGradient><linearGradient id="blueGrad" x1="1" y1="1" x2="0" y2="0">
  <stop offset="0" stop-color="#26496e"/><stop offset="1" stop-color="#4076b2"/></linearGradient><clipPath id="tile"><rect x="0" y="0" width="1024" height="1024" rx="225"/></clipPath></defs>
<g clip-path="url(#tile)">
<rect x="0" y="0" width="1024" height="1024" fill="url(#bgGrad)"/>
<g transform="translate(-358.4 -102.39999999999998) scale(2.56)">
  <path d="M417.0 215.0
  A81.8 81.8 0 0 1 409.2 285.0
  A83.3 83.3 0 0 1 348.8 323.6
  A84.8 84.8 0 0 1 279.6 300.5
  A86.3 86.3 0 0 1 253.4 230.9
  A87.8 87.8 0 0 1 291.8 165.7
  L303.2 183.4
  A68.3 68.3 0 0 0 271.3 232.8
  A69.8 69.8 0 0 0 290.2 289.8
  A71.3 71.3 0 0 0 347.6 311.6
  A72.8 72.8 0 0 0 401.7 280.1
  A74.3 74.3 0 0 0 411.3 216.8
  A3 3 0 0 0 417.0 215.0
  Z" fill="url(#blueGrad)"/>
  <path d="M291.8 165.7
  A89.3 89.3 0 0 1 367.8 154.4
  A12 12 0 0 1 360.4 177.2
  A66.8 66.8 0 0 0 303.2 183.4
  Z" fill="#c07e2e"/>
  <path d="M398 165 C401 181 407 185 420 187 C407 189 401 193 398 209 C395 193 389 189 376 187 C389 185 395 181 398 165 Z" fill="#e6b64a"/></g>
</g>
</svg>